<svg width="67" height="52" viewBox="0 0 67 52" fill="none" xmlns="http://www.w3.org/2000/svg">
<path d="M37.9642 15.7713C37.9642 13.8748 36.3331 13.6435 34.7946 13.6435L30.2715 13.6088V21.6228H32.1686V18.7202H34.2509C36.3794 18.7202 35.9283 19.9113 35.963 21.6228H37.8833V20.0617C37.8833 18.9978 37.7097 18.3155 36.6108 17.9338C37.4668 17.5869 37.9758 16.6965 37.9642 15.7713V15.7713ZM34.5632 17.0781H32.1686V15.3088H34.5979C35.1879 15.3088 35.8357 15.4244 35.8357 16.1645C35.8357 16.9278 35.2226 17.0781 34.5632 17.0781V17.0781ZM32.6314 27.4281H26.535L24.1057 30.0647L21.7343 27.4281H14.0415L14.0299 35.4421H21.5955L24.0594 32.7823L26.4193 35.4421H30.1442L30.1558 32.7476C32.3422 32.7476 35.8589 33.2796 35.8589 30.0531C35.8589 28.0525 34.436 27.4281 32.6314 27.4281V27.4281ZM20.6237 33.7537H15.9271V32.1578H20.1263V30.5273H15.9271V29.0818H20.751L22.8217 31.4177L20.6237 33.7537ZM28.2355 34.702L25.3088 31.4524L28.2355 28.2838V34.702ZM32.6082 31.1171H30.1558V29.0818H32.6429C33.2908 29.0818 33.8229 29.3477 33.8229 30.0531C33.8229 30.7933 33.2907 31.1171 32.6082 31.1171V31.1171ZM28.9527 15.3088V13.6204H22.5325V21.6344H28.9527V19.9807H24.4528V18.3849H28.8255V16.7543H24.4528V15.3088H28.9527ZM66.9885 25.9016H66.9653H66.9885ZM44.4771 29.5906C44.4771 27.694 42.846 27.4281 41.3421 27.4281H36.7843L36.7727 35.4421H38.693L38.7046 32.5163H40.7406C42.0131 32.5163 42.4526 32.7476 42.4526 34.1122L42.4411 35.4421H44.3614L44.3729 33.8462C44.3729 32.817 44.1647 32.1 43.1005 31.7184C43.9912 31.3599 44.4655 30.4695 44.4771 29.5906V29.5906ZM41.0992 30.8858H38.7046V29.0818H41.1339C41.7239 29.0818 42.3717 29.1974 42.3717 29.9375C42.3717 30.7354 41.747 30.8858 41.0992 30.8858V30.8858ZM21.1096 21.6344V13.6204H17.9168L15.6379 19.0556L13.1276 13.6204H9.9927V21.2181L6.74207 13.6204H3.9079L0.472191 21.6344H2.54287L3.28323 19.8651H7.2742L8.01456 21.6344H11.9246V15.3666L14.7009 21.6344H16.3898L19.1662 15.3666V21.6344H21.1096ZM3.96574 18.1998L5.26136 15.0081L6.59169 18.1998H3.96574ZM59.1916 36.5754V36.055C57.9423 36.7026 58.7405 36.5754 41.0645 36.5754C41.0645 33.6612 41.076 33.8115 41.0645 33.6612C40.8678 33.6496 40.6943 33.6496 39.9771 33.6496C39.9771 35.7196 39.9655 34.436 39.9655 36.5754H35.3846C35.3846 35.1761 35.3961 34.806 35.3961 33.1986C34.2393 33.8925 32.7586 33.9387 31.4283 33.9156C31.4283 35.6155 31.4167 34.8754 31.4167 36.5754H25.7599C25.17 35.9162 25.4476 36.2169 23.9785 34.5632C23.6083 34.9679 22.4978 36.1706 22.116 36.5754H12.6302V25.9016H22.2433C22.8217 26.5492 22.5672 26.2601 24.0363 27.8906C24.4065 27.4859 25.4476 26.341 25.8525 25.9016H32.562C33.6956 25.9016 34.6442 26.1213 35.373 26.5492V25.9016C41.6545 25.9016 42.8113 25.7397 44.13 26.4914V25.9016H53.1762V26.5029C54.495 25.705 55.4436 25.9016 60.6839 25.9016V26.4798C61.8754 25.7975 62.6042 25.8785 66.9653 25.9016V5.61796C66.9653 2.55344 64.4782 0.0671387 61.4127 0.0671387H5.88604C2.8205 0.0671387 0.333374 2.55344 0.333374 5.61796V18.3155C1.42077 15.7829 2.61228 12.9959 3.00559 12.0824H7.59811C8.09554 13.2503 7.7832 12.5102 8.63923 14.5224V12.0824H13.9605C14.296 12.7993 15.2446 14.8578 15.5685 15.5516C16.2394 13.9789 16.7369 12.7878 17.0261 12.0824H28.9412C28.9412 12.0708 30.2715 12.0824 30.2831 12.0824C35.3383 12.1055 36.4835 11.9898 37.7329 12.6953V12.0824H42.3485V13.1578C43.2277 12.4524 44.4192 12.0824 45.8999 12.0824H49.0927C49.0927 12.1402 49.3125 12.117 49.3588 12.117H53.1068C53.5927 13.2503 53.4076 12.8109 54.1248 14.4993V12.117H59.1338C59.7006 13.0422 59.0181 11.9089 60.4294 14.2449V12.117H65.045V22.7561H60.2327C59.6081 21.7153 60.0708 22.5017 58.7058 20.2236V22.7561H52.5978C51.8575 21.0446 52.5863 22.7214 51.8343 20.9868H49.6364C49.1505 22.1432 49.3819 21.5881 48.8961 22.7561H45.7958C44.3729 22.7561 43.2161 22.4092 42.3601 21.7269V22.7561H34.6673C34.6326 21.1487 34.6558 19.8882 34.6558 19.8882C34.4476 19.8535 34.2625 19.8651 33.5221 19.8651V22.7677H17.8474V21.4494C17.5582 22.097 17.5351 22.1317 17.2574 22.7677H13.8449C13.3821 21.7385 13.5094 22.0276 13.2549 21.4494V22.7677H7.13539C6.64953 21.5997 6.88089 22.1548 6.39503 20.9984H4.17397C3.68811 22.1548 3.91947 21.5997 3.43361 22.7677H0.35651V46.324C0.35651 49.3885 2.84364 51.8748 5.90917 51.8748H61.4474C64.5129 51.8748 67 49.3885 67 46.324V35.8699C65.5309 36.8298 63.2173 36.5754 59.1916 36.5754V36.5754ZM63.3908 29.1164H66.8728V27.4281H63.0669C61.5862 27.4281 60.3137 28.1913 60.3137 29.8219C60.3137 33.638 65.2533 31.3021 65.2533 32.9905C65.2533 33.5802 64.7558 33.7306 64.2816 33.7306H60.5798L60.5682 35.4421H64.27C65.2417 35.4421 66.306 35.2339 66.8728 34.4129V31.4293C65.6582 29.8334 62.3266 31.279 62.3266 29.8681C62.3266 29.1974 62.8587 29.1164 63.3908 29.1164V29.1164ZM56.797 33.719H53.0721L53.0605 35.4305H56.7855C58.4975 35.4305 59.8163 34.7829 59.8163 32.8864C59.8163 29.0471 54.8536 31.5912 54.8536 29.845C54.8536 29.1974 55.4204 29.1049 55.9179 29.1049H59.4345V27.4165H55.594C54.1132 27.4165 52.8755 28.1797 52.8755 29.8103C52.8755 33.6265 57.815 31.2558 57.815 32.9789C57.8034 33.6034 57.2713 33.719 56.797 33.719V33.719ZM51.9153 29.0818V27.4281H45.5297L45.5182 35.4421H51.9037L51.9153 33.7884L47.45 33.7537V32.1578H51.8343V30.5273H47.4616V29.0818H51.9153ZM45.4025 16.5808C45.3678 16.604 45.2405 16.8352 45.2405 17.4597C45.2405 18.1536 45.3447 18.3502 45.3678 18.3733C45.3909 18.3849 45.495 18.4311 45.7611 18.4311L46.6056 16.4768C46.4783 16.4768 46.3626 16.4652 46.247 16.4652C45.5992 16.4652 45.4372 16.5461 45.4025 16.5808ZM47.7624 15.3666H47.7508H47.7624ZM45.8884 13.6088C43.1699 13.6088 41.9552 14.9965 41.9552 17.691C41.9552 20.2583 43.1352 21.6228 45.7727 21.6228H47.9937L48.7341 19.8535H52.7019L53.4654 21.6228H57.3639V15.621L60.9731 21.6228H63.7032V13.6435H61.7482V19.2059L58.3819 13.6435H55.4551V21.2065L52.2276 13.6435H49.3588L46.6403 19.946H45.7842C44.2457 19.946 43.9218 19.0093 43.9218 17.6447C43.9218 14.8925 45.738 15.3319 47.7508 15.3666V13.6088H45.8884ZM50.7585 15.0081L52.0541 18.1998H49.4166L50.7585 15.0081ZM39.0632 13.6204V21.6344H41.0182V13.6204H39.0632Z" fill="#6ACCFC"/>
</svg>
