<svg width="67" height="52" viewBox="0 0 67 52" fill="none" xmlns="http://www.w3.org/2000/svg">
<path d="M56.2246 43.668C56.2246 44.4545 55.6922 45.0213 54.9283 45.0213C54.1412 45.0213 53.632 44.4198 53.632 43.668C53.632 42.9162 54.1412 42.3148 54.9283 42.3148C55.6922 42.3148 56.2246 42.9162 56.2246 43.668ZM20.2524 42.3148C19.4306 42.3148 18.9561 42.9162 18.9561 43.668C18.9561 44.4198 19.4306 45.0213 20.2524 45.0213C21.0047 45.0213 21.5139 44.4545 21.5139 43.668C21.5024 42.9162 21.0047 42.3148 20.2524 42.3148ZM33.8519 42.2801C33.2269 42.2801 32.845 42.6849 32.7524 43.2864H34.963C34.8588 42.6271 34.4537 42.2801 33.8519 42.2801ZM46.3287 42.3148C45.5417 42.3148 45.0672 42.9162 45.0672 43.668C45.0672 44.4198 45.5417 45.0213 46.3287 45.0213C47.1158 45.0213 47.625 44.4545 47.625 43.668C47.625 42.9162 47.1158 42.3148 46.3287 42.3148ZM58.5857 45.3336C58.5857 45.3683 58.6204 45.3914 58.6204 45.4608C58.6204 45.4955 58.5857 45.5186 58.5857 45.588C58.551 45.6227 58.551 45.6459 58.5278 45.6806C58.4931 45.7153 58.47 45.7384 58.4005 45.7384C58.3658 45.7731 58.3426 45.7731 58.2732 45.7731C58.2385 45.7731 58.2153 45.7731 58.1459 45.7384C58.1112 45.7384 58.088 45.7037 58.0533 45.6806C58.0186 45.6459 57.9954 45.6227 57.9954 45.588C57.9607 45.5302 57.9607 45.4955 57.9607 45.4608C57.9607 45.403 57.9607 45.3683 57.9954 45.3336C57.9954 45.2757 58.0301 45.241 58.0533 45.2063C58.088 45.1717 58.1112 45.1717 58.1459 45.1485C58.2037 45.1138 58.2385 45.1138 58.2732 45.1138C58.3311 45.1138 58.3658 45.1138 58.4005 45.1485C58.4584 45.1832 58.4931 45.1832 58.5278 45.2063C58.5625 45.2295 58.551 45.2757 58.5857 45.3336ZM58.3311 45.4955C58.3889 45.4955 58.3889 45.4608 58.4237 45.4608C58.4584 45.4261 58.4584 45.403 58.4584 45.3683C58.4584 45.3336 58.4584 45.3104 58.4237 45.2757C58.3889 45.2757 58.3658 45.241 58.2963 45.241H58.1112V45.6459H58.2037V45.4839H58.2385L58.3658 45.6459H58.4584L58.3311 45.4955V45.4955ZM67 5.58058V46.2936C67 49.3586 64.5116 51.8453 61.4445 51.8453H5.88893C2.8218 51.8453 0.333374 49.3586 0.333374 46.2936V5.58058C0.333374 2.51554 2.8218 0.0288086 5.88893 0.0288086H61.4445C64.5116 0.0288086 67 2.51554 67 5.58058ZM7.74078 21.727C7.74078 30.5751 14.9283 37.7462 23.7709 37.7462C26.919 37.7462 30.0093 36.7977 32.625 35.0744C24.1875 28.2156 24.2454 15.273 32.625 8.4143C30.0093 6.67937 26.919 5.74251 23.7709 5.74251C14.9283 5.73094 7.74078 12.9135 7.74078 21.727ZM33.6667 34.311C41.8264 27.9496 41.7917 15.5506 33.6667 9.15453C25.5417 15.5506 25.507 27.9612 33.6667 34.311ZM17.1968 43.136C17.1968 42.1297 16.5371 41.4705 15.4954 41.4358C14.963 41.4358 14.3959 41.5977 14.0139 42.1876C13.7362 41.7134 13.2616 41.4358 12.6019 41.4358C12.1621 41.4358 11.7223 41.5977 11.375 42.0603V41.5514H10.426V45.7962H11.375C11.375 43.6102 11.0857 42.3032 12.4167 42.3032C13.5973 42.3032 13.3658 43.483 13.3658 45.7962H14.2801C14.2801 43.6796 13.9908 42.3032 15.3218 42.3032C16.5024 42.3032 16.2709 43.4599 16.2709 45.7962H17.2199V43.136H17.1968ZM22.3936 41.5514H21.4792V42.0603C21.1667 41.6787 20.7269 41.4358 20.125 41.4358C18.9329 41.4358 18.0186 42.3842 18.0186 43.668C18.0186 44.9635 18.9329 45.9003 20.125 45.9003C20.7269 45.9003 21.1667 45.6806 21.4792 45.2757V45.8078H22.3936V41.5514ZM27.0811 44.5124C27.0811 42.7774 24.4306 43.5639 24.4306 42.7543C24.4306 42.095 25.8079 42.1991 26.5718 42.6271L26.9537 41.8753C25.8658 41.1697 23.4584 41.1813 23.4584 42.8237C23.4584 44.4777 26.1088 43.7837 26.1088 44.5586C26.1088 45.2873 24.5463 45.2295 23.713 44.6512L23.3079 45.3798C24.6042 46.2589 27.0811 46.0738 27.0811 44.5124V44.5124ZM31.1783 45.588L30.9237 44.8015C30.4838 45.0444 29.5116 45.3104 29.5116 44.3273V42.4073H31.0278V41.5514H29.5116V40.256H28.5625V41.5514H27.6829V42.3958H28.5625V44.3273C28.5625 46.363 30.5649 45.9928 31.1783 45.588V45.588ZM32.7176 44.0382H35.9005C35.9005 42.1644 35.044 41.4242 33.8866 41.4242C32.6598 41.4242 31.7801 42.3379 31.7801 43.6565C31.7801 46.0275 34.3959 46.4208 35.6922 45.2989L35.2524 44.6049C34.3496 45.3451 32.9838 45.2757 32.7176 44.0382V44.0382ZM39.5579 41.5514C39.0255 41.3201 38.2153 41.3432 37.7987 42.0603V41.5514H36.8496V45.7962H37.7987V43.402C37.7987 42.0603 38.8982 42.2338 39.2801 42.4305L39.5579 41.5514V41.5514ZM40.7848 43.668C40.7848 42.3495 42.1274 41.9215 43.1806 42.6965L43.6204 41.9447C42.2778 40.8922 39.8357 41.4705 39.8357 43.6796C39.8357 45.9697 42.4283 46.4324 43.6204 45.4145L43.1806 44.6627C42.1158 45.4145 40.7848 44.9635 40.7848 43.668ZM48.5047 41.5514H47.5556V42.0603C46.595 40.7881 44.095 41.5052 44.095 43.668C44.095 45.8888 46.6875 46.5249 47.5556 45.2757V45.8078H48.5047V41.5514V41.5514ZM52.4051 41.5514C52.1274 41.4126 51.132 41.216 50.6459 42.0603V41.5514H49.7315V45.7962H50.6459V43.402C50.6459 42.1297 51.6875 42.2107 52.1274 42.4305L52.4051 41.5514V41.5514ZM57.0695 39.8281H56.1551V42.0603C55.2061 40.7996 52.6945 41.4705 52.6945 43.668C52.6945 45.9119 55.2987 46.5133 56.1551 45.2757V45.8078H57.0695V39.8281ZM57.9491 31.1419V31.6739H58.0417V31.1419H58.2616V31.0493H57.7292V31.1419H57.9491V31.1419ZM58.713 45.4608C58.713 45.403 58.713 45.3336 58.6783 45.2757C58.6436 45.241 58.6204 45.1832 58.5857 45.1485C58.551 45.1138 58.4931 45.0907 58.4584 45.056C58.4005 45.056 58.3311 45.0213 58.2732 45.0213C58.2385 45.0213 58.1806 45.056 58.1112 45.056C58.0533 45.0907 58.0186 45.1138 57.9838 45.1485C57.926 45.1832 57.8912 45.241 57.8912 45.2757C57.8565 45.3336 57.8565 45.403 57.8565 45.4608C57.8565 45.4955 57.8565 45.5533 57.8912 45.6227C57.8912 45.6574 57.926 45.7153 57.9838 45.75C58.0186 45.7847 58.0417 45.8078 58.1112 45.8425C58.169 45.8772 58.2385 45.8772 58.2732 45.8772C58.3311 45.8772 58.4005 45.8772 58.4584 45.8425C58.4931 45.8078 58.551 45.7847 58.5857 45.75C58.6204 45.7153 58.6436 45.6574 58.6783 45.6227C58.713 45.5533 58.713 45.4955 58.713 45.4608ZM59.0834 31.0378H58.9213L58.7362 31.4426L58.551 31.0378H58.3889V31.6623H58.4815V31.1881L58.6667 31.5929H58.794L58.9561 31.1881V31.6623H59.0834V31.0378V31.0378ZM59.5926 21.727C59.5926 12.9135 52.4051 5.73094 43.5625 5.73094C40.4144 5.73094 37.3241 6.67937 34.7084 8.40273C43.0533 15.2615 43.1806 28.2387 34.7084 35.0628C37.3241 36.7977 40.4375 37.7346 43.5625 37.7346C52.4051 37.7462 59.5926 30.5751 59.5926 21.727V21.727Z" fill="#EA7164"/>
</svg>
