<svg width="67" height="53" viewBox="0 0 67 53" fill="none" xmlns="http://www.w3.org/2000/svg">
<path d="M54.7431 23.3856C54.7431 23.3856 55.6227 27.7 55.8195 28.6046H51.9537C52.3357 27.5724 53.8056 23.5596 53.8056 23.5596C53.7825 23.5944 54.1875 22.5042 54.419 21.8315L54.7431 23.3856ZM67 5.83818V46.6624C67 49.7358 64.5116 52.2293 61.4445 52.2293H5.88893C2.8218 52.2293 0.333374 49.7358 0.333374 46.6624V5.83818C0.333374 2.76477 2.8218 0.27124 5.88893 0.27124H61.4445C64.5116 0.27124 67 2.76477 67 5.83818ZM17.9838 34.9718L25.2987 16.9721H20.3797L15.8311 29.2657L15.3334 26.7722L13.713 18.4914C13.4468 17.3432 12.625 17.0185 11.6065 16.9721H4.1181L4.03708 17.3316C5.86578 17.7955 7.49773 18.4682 8.92134 19.3148L13.0649 34.9718H17.9838ZM28.9098 34.995L31.8264 16.9721H27.1737L24.2686 34.995H28.9098V34.995ZM45.1019 29.1034C45.125 27.0505 43.875 25.4848 41.2014 24.1975C39.5695 23.374 38.5741 22.8173 38.5741 21.9707C38.5973 21.2053 39.419 20.4166 41.2477 20.4166C42.7639 20.3818 43.875 20.7413 44.7084 21.1009L45.125 21.298L45.7616 17.4012C44.8473 17.0416 43.3889 16.6357 41.595 16.6357C37 16.6357 33.7709 19.0945 33.7477 22.597C33.713 25.1833 36.0625 26.6214 37.8218 27.4913C39.6158 28.3727 40.2292 28.9526 40.2292 29.7296C40.2061 30.9358 38.7709 31.4925 37.4399 31.4925C35.588 31.4925 34.5926 31.2026 33.0764 30.5299L32.463 30.2399L31.8149 34.2876C32.9028 34.7863 34.9167 35.227 37 35.2502C41.8843 35.2618 45.0672 32.8378 45.1019 29.1034ZM61.4445 34.995L57.6945 16.9721H54.095C52.9838 16.9721 52.1389 17.2968 51.6644 18.4682L44.7547 34.995H49.6389C49.6389 34.995 50.4375 32.7683 50.6112 32.2927H56.5834C56.7223 32.9306 57.1389 34.995 57.1389 34.995H61.4445Z" fill="#4CA1D9"/>
</svg>
